<svg width="151" height="80" viewBox="0 0 151 80" fill="none" xmlns="http://www.w3.org/2000/svg">
<path fill-rule="evenodd" clip-rule="evenodd" d="M0.486642 11.6626L40.2286 11.7834L40.2894 23.8077H39.194C39.194 23.8077 37.9159 17.3424 32.4993 15.2276C27.0827 13.1128 22.9442 13.6566 14.4237 13.6566L14.3628 30.0312H20.6923C20.6923 30.0312 25.0743 30.4542 27.3261 28.1581C29.578 25.862 30.43 24.3515 30.6735 23.143H31.5255V40.6053H30.6735C30.6735 40.6053 29.9432 33.8379 24.5874 32.4482C24.5874 32.4482 22.3356 31.7835 17.0407 31.7835H14.4237V46.4059C14.4237 46.4059 13.876 52.4482 18.4405 53.0525L23.1268 54.1401V54.9256H0.425781V54.1401C0.425781 54.1401 5.53807 54.2609 6.81614 51.844C8.15507 49.4875 7.97249 46.5268 7.97249 46.5268L7.78991 18.1279C7.78991 18.1279 7.72905 12.6898 2.49504 12.6898L0.425781 12.5689L0.486642 11.6626Z" fill="#21409A"/>
<path fill-rule="evenodd" clip-rule="evenodd" d="M143.692 12.749C143.692 12.749 144.179 23.5648 145.092 26.7068H144.24C144.24 26.7068 142.231 17.462 133.954 14.32C125.677 11.178 115.513 13.7158 112.288 22.7189C109.062 31.7219 110.097 43.9878 118.313 49.3655C126.529 54.7431 139.858 54.441 148.865 41.0271L150.569 42.3564C150.569 42.3564 143.144 53.5951 133.163 55.4682C123.182 57.3413 112.957 54.5014 106.75 45.9214C100.542 37.3413 101.637 21.9334 113.262 14.6826C124.825 7.49222 135.05 12.5678 141.197 12.5678L143.692 12.749Z" fill="#21409A"/>
<path fill-rule="evenodd" clip-rule="evenodd" d="M57.4522 28.7614L53.7397 28.5801C53.7397 28.5801 53.3137 27.1904 52.8876 26.7674C52.5225 26.3444 52.5833 25.0151 52.5833 25.0151C52.5833 25.0151 52.4007 23.9879 52.8268 23.0816C53.2528 22.1148 52.8268 21.994 53.3745 20.9668C53.9223 19.9396 54.9569 18.7915 54.9569 18.7915L55.7481 18.9124L57.087 17.4018H57.8782C57.8782 17.4018 58.3651 17.6435 58.4259 17.5226C58.4868 17.4018 58.4868 17.3414 58.4868 17.3414L61.1038 17.4018L61.1647 18.6707L63.2948 20.8459C63.2948 20.8459 63.7817 20.9063 63.7817 20.423C63.7817 19.9396 63.9034 19.7583 63.9034 19.7583L64.938 19.8187L65.9726 20.6646L68.2245 20.6042C68.2245 20.6042 68.7114 19.8187 68.9548 19.0332C68.9548 19.0332 69.0765 18.6707 68.7114 18.6707C68.4071 18.6707 68.2853 18.5498 68.2853 18.5498L68.0419 18.429H66.3378L66.2769 17.9456L66.3378 17.2205L66.5204 16.9788H68.0419L68.2245 16.6767H69.0765L69.2591 17.0997L69.3808 17.3414H69.6851C69.6851 17.3414 69.8677 16.9184 70.2937 16.858C70.7198 16.7976 70.7806 16.7371 70.7806 16.7371C70.7806 16.7371 70.8415 16.4955 70.598 16.2538C70.3546 16.0121 69.8069 15.6495 69.746 15.3474C69.6851 15.0453 69.6243 14.9849 69.6243 14.9849L70.2329 14.7432C70.2329 14.7432 70.2937 14.3806 69.9286 14.4411C69.5634 14.5015 69.0765 14.864 69.0765 14.864C69.0765 14.864 69.0157 14.9244 69.0157 15.1661C69.0157 15.4078 69.0157 15.5287 69.0157 15.5287L68.7722 15.7704C68.7722 15.7704 68.6505 15.7704 68.4679 15.7704C68.2853 15.7704 68.1028 15.7704 68.1028 15.7704L68.0419 14.864C68.0419 14.864 67.6767 14.6828 67.4942 14.8036C67.3116 14.9244 67.2507 15.5891 67.0681 15.6495C66.8247 15.7099 66.4595 16.0725 66.4595 16.435C66.4595 16.7371 66.2769 16.7976 65.9118 16.7976C65.5466 16.7976 65.3032 16.7371 65.3032 16.7371L65.1815 18.2477L64.7554 18.1873L64.2685 17.0997C64.2685 17.0997 64.2685 16.7371 64.3294 16.3746C64.3903 16.0121 63.7208 15.287 63.7208 15.287C63.7208 15.287 63.0513 14.5619 63.1122 15.1057C63.2339 15.6495 63.2948 15.8912 63.2948 15.8912L63.5991 16.3142L63.7208 16.5559L63.6599 16.7976L63.3556 16.6767C63.3556 16.6767 63.2339 16.9184 63.2339 17.1601C63.2339 17.4018 63.2339 17.4622 63.2339 17.4622H62.9905L63.0513 16.858L62.6253 16.435L62.2602 16.0121L62.1384 15.6495C62.1384 15.6495 62.3819 15.4078 62.1384 15.3474C61.895 15.287 61.2864 15.4078 61.2864 15.4078L61.1038 15.5287C61.1038 15.5287 60.9821 15.7099 60.7995 15.4683C60.5561 15.287 60.4952 15.1661 60.4952 15.1661C60.4952 15.1661 60.4952 15.0453 60.3126 15.2266C60.13 15.4078 60.13 15.8308 59.8866 15.8308C59.5823 15.8308 59.2171 15.8912 59.2171 15.8912C59.2171 15.8912 59.1563 15.8308 59.1563 16.1329C59.1563 16.435 59.1563 16.435 59.1563 16.6767C59.1563 16.9184 59.3388 16.9788 59.1563 17.0393C58.9737 17.0997 57.6347 17.0997 57.6347 17.0997L57.2696 16.9184L57.0261 16.4955C56.9653 16.1933 57.8782 15.6495 57.8782 15.6495C57.8782 15.6495 57.9999 15.1661 57.9999 14.864C57.9999 14.6223 58.2434 14.3202 58.2434 14.3202L58.6694 14.2598L59.1563 14.5619C59.1563 14.5619 59.5823 14.864 59.7649 14.5619C59.9474 14.2598 60.4952 14.0785 60.4952 14.0785L60.4343 13.2326C60.4343 13.2326 60.5561 12.6888 60.9212 12.6888C61.3472 12.6888 61.6515 12.5075 61.9559 12.5075C62.2602 12.5075 62.5645 12.6284 62.747 12.3263C62.9296 12.0241 63.7208 12.0846 63.7208 12.0846L63.7817 11.5408L63.9642 11.3595L64.086 11.1782H64.2685V12.145C64.2685 12.145 64.8163 12.3263 65.3032 12.2658C65.7901 12.2658 65.9726 12.2054 66.1552 12.0241C66.3378 11.8429 66.5813 11.1782 66.8247 10.9365C67.0681 10.7552 68.1636 10.8761 68.1636 10.8761C68.1636 10.8761 68.3462 10.6344 68.0419 10.6344C67.7376 10.6344 67.129 10.574 67.129 10.574L67.2507 9.96975C67.2507 9.96975 67.3724 9.72806 67.6159 9.54679C67.8593 9.36552 68.1028 9.24467 68.1028 9.24467C68.1028 9.24467 68.2853 9.0634 68.2245 8.94255C68.1028 8.76129 67.4942 8.64044 67.3724 9.00298C67.2507 9.36552 66.6421 9.8489 66.6421 9.8489C66.6421 9.8489 66.5204 10.574 66.1552 10.9365C65.7901 11.2991 65.1815 11.5408 64.9989 11.5408C64.8163 11.5408 64.9989 10.4531 64.7554 10.5136C64.512 10.574 64.3903 10.574 64.3903 10.574C64.3903 10.574 64.2077 10.574 64.512 10.0906C64.8163 9.60721 64.8163 9.48636 64.8163 9.42594C64.8163 9.36552 64.9989 9.30509 65.2423 9.30509C65.4858 9.30509 67.0681 8.76128 67.3116 8.39875C67.555 8.03621 67.8593 7.91536 68.2853 7.85494C68.7114 7.79451 69.3808 7.79451 69.6851 8.15705C70.0503 8.45917 70.2329 8.39875 70.1112 8.64044C69.9894 8.88213 69.746 8.88213 69.746 8.88213V9.66763C69.746 9.66763 70.4763 9.8489 70.598 9.42594C70.7198 9.00298 70.7806 8.94255 70.7806 8.94255C70.7806 8.94255 71.9978 8.70086 72.363 8.39875C72.6673 8.09663 72.6064 7.85494 72.6064 7.85494H73.9454L74.0671 7.06944C74.0671 7.06944 74.6148 7.19028 74.554 7.61324C74.4931 8.03621 74.6148 8.39875 74.6148 8.39875C74.6148 8.39875 74.98 8.70086 75.2843 8.45917C75.5886 8.21748 75.1626 7.67367 74.98 7.4924C74.7974 7.31113 74.6148 7.31113 74.7366 6.64647C74.8583 5.98182 75.1017 5.74013 75.1017 5.74013L76.1972 5.55886C76.1972 5.55886 76.2581 6.22351 76.5624 6.22351C76.8667 6.22351 76.9275 5.74013 76.9275 5.74013C76.9275 5.74013 78.2056 5.6797 77.4753 5.07547C76.6841 4.47124 76.5015 4.16912 76.5015 4.16912C80.8835 5.43801 84.7177 8.15705 87.4564 11.8429L87.2738 12.3867C87.2738 12.3867 87.213 13.6556 87.5781 14.1389C87.9433 14.5619 88.8562 15.7704 88.8562 15.7704C88.8562 15.7704 89.7083 16.435 89.7083 16.9184C89.7083 17.4018 89.83 17.7643 89.83 17.7643L90.256 17.8852C90.256 17.8852 90.4994 17.6435 90.6212 18.0665C90.7429 18.4894 90.8037 18.7915 90.7429 18.9728C90.682 19.1541 90.256 18.6707 90.256 19.1541C90.1951 19.577 90.1951 20.7855 89.83 20.7855C89.4648 20.8459 89.2214 20.6042 89.2214 21.0876C89.2822 21.571 89.1605 22.2961 89.5865 22.5378C90.0126 22.7795 90.4386 23.3837 90.4386 24.0483C90.4994 24.713 90.3777 26.0423 90.1951 26.1632C90.0126 26.284 89.2822 25.0151 89.2822 25.0151C89.2822 25.0151 88.7345 24.713 88.7953 25.3172C88.8562 25.9215 88.8562 26.3444 89.2214 26.8278C89.5865 27.3112 90.4994 28.3988 90.1343 28.8822C90.1343 28.8822 88.9779 27.6133 88.6128 26.8882C88.2476 26.2236 88.1259 24.5922 88.1259 24.5922C88.1259 24.5922 88.1259 23.9275 87.3347 23.2628C86.5435 22.5982 86.3001 22.1148 86.3001 22.1148C86.3001 22.1148 86.1175 21.7523 85.6915 22.5982C85.2046 23.4441 83.5613 25.2568 83.6222 26.1027C83.6831 26.9487 84.1091 27.7946 83.5005 28.3988C82.9527 29.003 82.5267 28.278 81.979 27.4925C81.4312 26.707 81.0661 24.6526 81.0661 24.6526C81.0661 24.6526 81.0661 24.1692 80.4575 23.9275C79.8488 23.6858 78.7534 22.8399 78.7534 22.8399L77.3536 22.9003C77.3536 22.9003 76.1364 22.8399 75.9538 22.8399C75.7712 22.8399 75.5886 23.2024 75.0409 23.0212C74.4931 22.8399 73.2759 21.571 73.2759 21.571C73.2759 21.571 72.6673 21.3897 72.9716 21.9335C73.2759 22.4773 73.9454 23.2024 73.9454 23.2024C73.9454 23.2024 74.2497 23.6254 74.6148 23.6254C74.98 23.6254 75.2843 23.4441 75.8321 23.6858C76.3798 23.9275 76.4407 24.1088 76.3189 24.5922C76.1364 25.136 76.0146 26.3444 75.3452 26.6465C74.7366 26.9487 71.9978 27.5529 71.9978 27.5529C71.9978 27.5529 71.1458 27.9154 70.7198 27.2508C70.2937 26.5861 70.598 26.284 69.5026 24.5317L68.5288 22.4773C68.5288 22.4773 67.8593 21.8731 67.7985 22.4169C67.7376 22.9607 69.1374 26.2236 69.1374 26.2236C69.1374 26.2236 69.2591 26.8882 69.8677 27.2508C70.4155 27.6133 70.7198 27.5529 70.9632 28.1571C71.2066 28.7614 71.8761 28.6405 71.937 28.6405C71.9978 28.6405 73.0325 28.3384 73.0325 28.3384C73.0325 28.3384 73.7019 28.0967 73.3368 28.9426C72.9716 29.7885 72.789 31.7825 71.4501 32.6889C70.172 33.5952 69.6851 34.2599 69.6851 34.2599C69.6851 34.2599 69.0765 34.8037 69.2591 35.71C69.5026 36.6164 70.1112 38.0061 69.3808 38.7916L68.4679 39.5167C68.4679 39.5167 68.0419 39.6375 68.0419 40.1813C68.0419 40.7251 68.1028 40.9668 67.7376 41.3898C67.3724 41.8128 65.7292 43.2025 65.7292 43.2025C65.7292 43.2025 65.4858 43.5046 64.7554 43.5046C64.086 43.5046 63.7208 43.565 63.7208 43.565C63.7208 43.565 63.2948 43.0816 62.6862 42.1149C62.0776 41.1481 59.7649 38.4291 59.7649 38.4291C59.7649 38.4291 59.3997 38.1874 59.704 37.8248C60.0083 37.4623 60.0083 37.4019 60.0083 37.2206C60.0083 37.0393 60.0692 35.4079 60.0692 35.4079C60.0692 35.4079 59.278 35.2266 59.278 34.6224C59.278 34.0182 59.0345 33.4139 58.7302 32.9306C58.4259 32.4472 58.2434 32.0242 58.2434 31.7825C58.3042 31.5408 58.7302 31.42 58.3651 30.5136C58.4259 29.6073 58.4259 29.6073 58.4259 29.6073C58.4259 29.6073 57.5739 29.849 57.5739 29.4864C57.513 29.1239 57.5739 28.9426 57.5739 28.9426L57.4522 28.7614ZM73.5802 15.5287C73.5802 15.5287 74.128 15.5287 74.0062 15.1057C73.8845 14.6828 73.215 14.6223 72.8499 14.9244C72.4239 15.2266 72.4847 16.0121 72.5456 16.435C72.6064 16.7976 73.3976 16.6767 73.2151 17.4018C73.0325 18.0665 72.8499 17.4622 72.9107 18.4894C72.9107 18.4894 73.0933 18.7311 73.4585 18.7311C73.8237 18.7311 74.4323 18.852 74.4323 18.852C74.4323 18.852 74.7974 18.5498 74.4931 18.0665C74.1888 17.6435 73.8237 17.4018 74.1888 17.1601C74.554 16.9184 74.554 16.435 74.2497 16.4955C73.9454 16.5559 73.3976 16.0725 73.3976 16.0725C73.3976 16.0725 72.9716 15.4683 73.5802 15.5287ZM75.4669 14.6828C75.4669 14.6828 75.7103 14.864 75.7712 14.5619C75.8321 14.2598 76.1972 14.3806 76.1364 14.864C76.0755 15.287 76.1972 15.5287 76.1972 15.5287C76.1972 15.5287 76.3798 15.9516 75.9538 15.9516C75.5278 15.9516 75.3452 15.4683 75.3452 15.4683C75.3452 15.4683 74.9191 14.6828 75.4669 14.6828ZM82.5267 9.48636C82.5267 9.48636 82.7093 10.0906 82.8919 10.574C83.1353 10.9969 83.5005 11.0574 83.5005 11.0574C83.5005 11.0574 83.9265 10.7552 83.5613 10.3323C83.1962 9.90933 82.8919 9.42594 82.8919 9.42594C82.8919 9.42594 82.7702 9.18425 82.5267 9.48636ZM67.0681 32.568L67.0073 33.3535C67.0073 33.3535 67.129 33.5952 67.3116 33.5348C67.4942 33.5348 67.555 33.5348 67.555 33.2327C67.555 32.9306 67.555 32.3263 67.555 32.3263L67.0681 32.568ZM71.8153 38.5499L72.8499 37.704C72.8499 37.704 73.2151 37.4019 73.5194 37.5831C73.8237 37.7644 73.8237 37.8853 73.5802 38.5499C73.3368 39.2146 72.789 39.5167 72.6673 40.3022C72.4847 41.0877 72.3021 41.3898 72.0587 41.5106C71.8153 41.6315 71.4501 41.5711 71.3892 40.9668C71.3284 40.423 71.4501 39.6375 71.511 39.5167C71.511 39.3958 71.8153 38.5499 71.8153 38.5499ZM75.2234 40.1209H75.4669V40.3626H75.2234V40.1209ZM76.0146 39.8792V40.1209H76.2581V39.8792H76.0146ZM84.4743 27.9759C84.4743 27.9759 84.5351 28.0967 84.3525 28.278C84.17 28.4592 84.1699 28.7614 84.1699 28.7614V29.003C84.1699 29.003 84.17 29.3052 84.3525 29.2447C84.5351 29.1843 84.4134 29.003 84.5351 29.003C84.7177 29.003 84.7786 28.7009 84.7786 28.7009L84.8394 28.2175C84.7785 28.2175 84.7177 27.855 84.4743 27.9759ZM88.7345 28.8218C88.7345 28.8218 89.3431 29.003 89.5257 29.4864C89.6474 29.9094 89.5865 29.9094 89.7691 30.2719C89.9517 30.6345 90.3169 30.7553 90.5603 30.7553C90.8037 30.7553 90.9863 30.3324 90.8037 29.9698C90.682 29.6677 89.7691 28.8218 89.7691 28.8218C89.7691 28.8218 89.4648 28.5801 89.2822 28.3988C89.0997 28.1571 88.7953 28.2175 88.7953 28.2175C88.7953 28.2175 88.3085 28.0967 88.3085 28.3384C88.3693 28.5197 88.7345 28.8218 88.7345 28.8218ZM91.5341 31.5408L90.5603 31.42C90.5603 31.42 90.5603 31.2991 90.6212 31.2387C90.682 31.1783 90.8037 30.9366 91.108 30.8157C91.4123 30.6949 91.7167 30.6949 91.7167 30.6949L91.5341 31.5408ZM91.8384 29.7885C91.8384 29.7885 91.5341 29.6073 91.4732 29.0635C91.4124 28.5197 91.6558 26.7674 91.6558 26.7674C91.6558 26.7674 91.8992 25.9819 92.2035 26.0423L92.0818 28.8822C92.021 28.8218 91.9601 29.5469 91.8384 29.7885ZM60.4343 7.31113C60.4343 7.31113 61.9558 6.04224 63.9642 5.07547C65.9726 4.16912 67.7985 3.98785 68.2245 4.16912C68.6505 4.41082 68.9548 4.65251 68.4679 4.95462C67.981 5.25674 65.6075 6.16309 65.6075 6.16309C65.6075 6.16309 64.7554 6.52563 63.7817 6.52563C62.8079 6.52563 62.1993 6.16309 61.6515 6.7069C61.1038 7.25071 60.4343 7.31113 60.4343 7.31113ZM62.9905 7.4924C62.9905 7.4924 62.9296 7.67367 62.747 7.73409C62.6253 7.73409 62.2602 7.73409 62.2602 7.97578C62.1993 8.21748 62.4427 8.2779 62.6862 8.2779C62.9296 8.2779 63.2339 8.21748 63.2948 8.03621C63.3556 7.85494 63.4165 7.43198 63.2339 7.43198C63.0513 7.37155 62.9905 7.4924 62.9905 7.4924ZM61.0429 10.6948C61.0429 10.6948 60.7995 10.4531 60.5561 10.9365C60.3126 11.4199 60.4952 11.4199 60.1909 11.5408C60.1909 11.5408 60.13 11.8429 60.4952 11.7824C60.8604 11.722 61.0429 11.4199 61.0429 11.4199C61.0429 11.4199 61.3472 11.1782 61.3472 10.8761C61.2864 10.6344 61.0429 10.6948 61.0429 10.6948ZM60.9821 11.9637H61.5298C61.5298 11.9637 61.7733 11.9637 61.9559 11.7824C62.1384 11.6012 62.1384 11.0574 62.1384 11.0574L62.1993 10.574C62.1993 10.574 62.4427 10.2719 62.5645 10.151C62.6862 10.0302 62.3819 9.90933 62.0776 10.0302C61.8341 10.151 61.895 10.151 61.8341 10.3927C61.7733 10.6948 61.895 11.0574 61.7124 11.1782C61.5298 11.2991 61.5298 11.4803 61.4081 11.6012C61.4081 11.6616 60.9212 11.4199 60.9821 11.9637ZM68.7114 5.86097C68.7722 5.80055 68.8939 5.61928 68.8939 5.61928C68.8939 5.61928 69.0157 5.43801 69.1374 5.43801C69.2591 5.43801 69.3808 5.31716 69.3808 5.43801C69.4417 5.55886 69.4417 5.61928 69.4417 5.74013C69.4417 5.86097 69.3808 5.9214 69.32 5.98182C69.1983 6.04224 69.1983 6.04224 69.1374 6.10267C69.0157 6.16309 69.1374 6.22351 69.0157 6.22351C68.894 6.22351 68.7722 6.22351 68.7722 6.22351C68.7722 6.22351 68.4679 6.10267 68.7114 5.86097ZM61.7124 15.7704H61.9559V16.0121H61.7124V15.7704ZM61.7124 16.3142V16.6163H61.469L61.5298 16.7976H61.9559V16.2538L61.7124 16.3142ZM62.3819 17.5831H62.8688C62.8688 17.5831 62.9905 17.5226 62.9905 17.7643C62.9905 17.9456 62.8688 18.0665 62.8079 18.0665C62.6862 18.0665 62.6862 17.8852 62.5645 17.8852C62.3819 17.8248 62.3819 17.5831 62.3819 17.5831ZM67.8593 19.0332C67.8593 19.0332 68.3462 18.9124 68.3462 19.0936C68.3462 19.2749 68.2245 19.3353 68.1028 19.3353C67.981 19.3353 67.8593 19.0332 67.8593 19.0332Z" fill="#BCBEC0"/>
<path fill-rule="evenodd" clip-rule="evenodd" d="M71.9983 0C71.9983 0 82.8924 0.241693 90.1956 5.19639C97.4989 10.1511 101.577 17.4019 101.333 26.3445C101.09 35.2871 97.2555 45.0153 82.3446 50.0304C82.3446 50.0304 73.7024 52.7494 64.3908 51.0576C55.0791 49.3053 47.0455 44.1089 43.333 36.2539C39.6205 28.3989 40.716 18.9125 45.0371 12.3263C49.4191 5.7402 58.1221 0 71.9983 0ZM71.0854 3.26285C82.7707 3.26285 92.2649 13.4139 92.2649 25.8611C92.2649 38.3687 82.7707 48.4594 71.0854 48.4594C59.4002 48.4594 49.906 38.3687 49.906 25.8611C49.906 13.3535 59.4002 3.26285 71.0854 3.26285Z" fill="#21409A"/>
<path fill-rule="evenodd" clip-rule="evenodd" d="M40.1675 55.1661L38.646 53.4138C38.646 53.4138 45.5232 48.8821 55.7478 50.0301C65.9724 51.2386 75.7709 57.5226 83.9262 57.4017C92.0815 57.2809 95.4897 54.018 97.4373 51.4803L99.324 53.6555C99.324 53.6555 93.6031 60.725 87.091 62.3564C80.5789 63.9878 74.7363 63.3836 66.3375 58.6706C57.9388 54.018 51.305 51.1177 45.7058 52.87C40.2284 54.6827 40.1675 55.1661 40.1675 55.1661Z" fill="#21409A" stroke="black" stroke-width="0.216" stroke-miterlimit="22.9256"/>
<path fill-rule="evenodd" clip-rule="evenodd" d="M0.790527 63.8672H149.716V77.2811H0.790527V63.8672Z" fill="#BCBEC0"/>
<path d="M8.0943 68.5804V70.8765H8.27688C8.52032 70.8765 8.76377 70.8161 8.88549 70.7557C9.06807 70.6952 9.18979 70.5744 9.31151 70.3931C9.43323 70.2119 9.49409 69.9702 9.55495 69.6681H9.67667V72.4475H9.55495C9.49409 71.9037 9.37237 71.6016 9.12893 71.4203C8.88549 71.2391 8.64204 71.1786 8.33774 71.1786H8.15516V72.8705C8.15516 73.1726 8.15516 73.3539 8.21602 73.4143C8.27688 73.4747 8.33774 73.5351 8.3986 73.5956C8.52032 73.656 8.64204 73.656 8.76377 73.656H8.94635V73.7768H5.90332V73.656H6.0859C6.26848 73.656 6.3902 73.656 6.51193 73.5956C6.57279 73.5351 6.63365 73.4747 6.69451 73.4143C6.75537 73.3539 6.75537 73.1726 6.75537 72.9309V69.3055C6.75537 69.0034 6.75537 68.8221 6.69451 68.7617C6.69451 68.7013 6.57279 68.6409 6.51193 68.5804C6.3902 68.52 6.26848 68.52 6.14676 68.52H5.90332V68.2783H10.7113V69.8493H10.5287C10.4679 69.4868 10.407 69.1847 10.2244 69.0034C10.0418 68.8221 9.7984 68.7013 9.49409 68.6409C9.31151 68.5804 9.00721 68.5804 8.58118 68.5804H8.0943Z" fill="#21409A"/>
<path d="M14.1809 73.656V73.7768H11.1987V73.656H11.3813C11.5639 73.656 11.6856 73.656 11.8073 73.5956C11.8682 73.5351 11.9291 73.4747 11.9899 73.4143C12.0508 73.3539 12.0508 73.1726 12.0508 72.9309V69.3055C12.0508 69.0034 12.0508 68.8221 11.9899 68.7617C11.9899 68.7013 11.8682 68.6409 11.8073 68.5804C11.6856 68.52 11.5639 68.52 11.4422 68.52H11.2596V68.2783H14.2418V68.4596H13.9983C13.8157 68.4596 13.694 68.4596 13.5723 68.52C13.5114 68.5804 13.4506 68.6409 13.3897 68.7013C13.3897 68.7617 13.3288 68.943 13.3288 69.1847V72.8101C13.3288 73.1122 13.3288 73.2934 13.3897 73.3539C13.4506 73.4143 13.5114 73.4747 13.5723 73.5351C13.694 73.5956 13.8157 73.5956 13.9375 73.5956H14.1809V73.656Z" fill="#21409A"/>
<path d="M16.676 71.2391V72.8101C16.676 73.1122 16.676 73.2934 16.7369 73.3539C16.7977 73.4143 16.8586 73.4747 16.9195 73.5351C17.0412 73.5956 17.2238 73.5956 17.4672 73.5956V73.7164H14.5459V73.5956C14.7893 73.5956 14.9719 73.5956 15.0936 73.5351C15.2154 73.4747 15.2762 73.4143 15.2762 73.3539C15.3371 73.2934 15.3371 73.1122 15.3371 72.8101V69.2451C15.3371 68.943 15.3371 68.7617 15.2762 68.7013C15.2154 68.6409 15.1545 68.5804 15.0936 68.52C14.9719 68.4596 14.8502 68.4596 14.5459 68.4596V68.2783H17.2238C17.8932 68.2783 18.441 68.3387 18.7453 68.3992C19.0496 68.52 19.3539 68.6409 19.5365 68.8826C19.719 69.1242 19.8408 69.4264 19.8408 69.7285C19.8408 70.1514 19.6582 70.4536 19.3539 70.7557C19.1713 70.9369 18.867 71.0578 18.5627 71.1182L19.9625 72.9913C20.1451 73.233 20.2668 73.3539 20.3276 73.4143C20.4494 73.4747 20.5711 73.5351 20.7537 73.5351V73.656H18.9279L17.102 71.1182H16.676V71.2391ZM16.676 68.5804V70.9974H16.9195C17.2846 70.9974 17.5889 70.9369 17.7715 70.8765C17.9541 70.8161 18.1367 70.6952 18.2584 70.514C18.3801 70.3327 18.441 70.091 18.441 69.7889C18.441 69.3659 18.3193 69.0638 18.1367 68.8826C17.9541 68.7013 17.5889 68.5804 17.1629 68.5804H16.676Z" fill="#21409A"/>
<path d="M24.6489 68.1575L24.7097 69.9702H24.5272C24.4663 69.4868 24.2229 69.1242 23.9186 68.8825C23.6142 68.5804 23.2491 68.4596 22.8839 68.4596C22.5796 68.4596 22.397 68.52 22.2145 68.7013C22.0319 68.8221 21.971 69.0034 21.971 69.1847C21.971 69.3055 21.971 69.4264 22.0319 69.4868C22.0927 69.6076 22.2145 69.7285 22.397 69.8493C22.5188 69.9097 22.8231 70.091 23.3099 70.3327C23.9794 70.6348 24.4054 70.9369 24.6489 71.2391C24.8923 71.5412 25.014 71.8433 25.014 72.2058C25.014 72.6892 24.8315 73.0517 24.4663 73.4143C24.1011 73.7164 23.6143 73.8977 23.0665 73.8977C22.8839 73.8977 22.7013 73.8977 22.5796 73.8372C22.397 73.7768 22.2145 73.7164 21.971 73.656C21.8493 73.5956 21.7276 73.5956 21.6667 73.5956C21.6059 73.5956 21.545 73.5956 21.4233 73.656C21.3624 73.7164 21.3015 73.7768 21.2407 73.8977H21.0581V71.7829H21.2407C21.3624 72.3871 21.6059 72.8101 21.971 73.1122C22.3362 73.4143 22.7013 73.5956 23.1274 73.5956C23.4317 73.5956 23.6751 73.5351 23.8577 73.3539C24.0403 73.1726 24.162 72.9913 24.162 72.7496C24.162 72.6288 24.1011 72.5079 24.0403 72.3871C23.9794 72.2662 23.8577 72.1454 23.736 72.0245C23.6142 71.9037 23.3099 71.7829 22.9448 71.6016C22.397 71.3599 22.0319 71.1182 21.8493 70.9974C21.6059 70.8161 21.4233 70.6348 21.3015 70.3931C21.1798 70.1514 21.119 69.9702 21.119 69.668C21.119 69.2451 21.3015 68.8825 21.6059 68.52C21.971 68.2179 22.3362 68.0366 22.8839 68.0366C23.0665 68.0366 23.2491 68.0366 23.4317 68.097C23.5534 68.1575 23.736 68.2179 23.9186 68.2783C24.1011 68.3387 24.2229 68.3992 24.3446 68.3992C24.4054 68.3992 24.4663 68.3992 24.5272 68.3387C24.588 68.2783 24.588 68.2179 24.6489 68.0366V68.1575Z" fill="#21409A"/>
<path d="M30.8563 68.2783V69.7889H30.7345C30.6737 69.4264 30.5519 69.1847 30.4302 69.0638C30.3085 68.8826 30.1868 68.8221 30.0042 68.7013C29.8825 68.6409 29.6999 68.6409 29.4565 68.6409H29.0304V72.9309C29.0304 73.233 29.0304 73.4143 29.0913 73.4747C29.1522 73.5351 29.213 73.5956 29.2739 73.656C29.3956 73.7164 29.5173 73.7164 29.639 73.7164H29.8216V73.8373H26.7786V73.7164H26.9612C27.1438 73.7164 27.2655 73.7164 27.3872 73.656C27.4481 73.5956 27.5089 73.5351 27.5698 73.4747C27.6306 73.4143 27.6306 73.233 27.6306 72.9913V68.7013H27.2046C26.8395 68.7013 26.5352 68.7617 26.3526 68.943C26.1091 69.1847 25.9265 69.4868 25.8657 69.9097H25.6831V68.2783H30.8563Z" fill="#21409A"/>
<path d="M37.3072 73.837C37.4289 74.1995 37.6115 74.4412 37.9158 74.6225C38.1593 74.8038 38.5244 74.9246 38.9505 74.9246C39.0722 74.9246 39.1939 74.9246 39.3156 74.8642V75.1059C38.8896 75.2267 38.5244 75.2872 38.1593 75.2872C37.6115 75.2872 37.1855 75.1663 36.7595 74.9246C36.3335 74.6829 36.0291 74.3204 35.8466 73.837C35.1771 73.7162 34.5685 73.3536 34.2033 72.8702C33.7773 72.3868 33.5947 71.7222 33.5947 71.0575C33.5947 70.2116 33.899 69.547 34.4468 69.0031C34.9945 68.4593 35.7248 68.1572 36.6378 68.1572C37.4898 68.1572 38.2201 68.4593 38.8287 69.0031C39.3765 69.547 39.6808 70.2116 39.6808 71.0575C39.6808 71.7826 39.4373 72.3868 39.0113 72.9307C38.4636 73.414 37.9158 73.7162 37.3072 73.837ZM36.5769 68.4593C36.09 68.4593 35.664 68.701 35.4205 69.2448C35.1771 69.6678 35.0554 70.272 35.0554 71.0575C35.0554 72.0243 35.238 72.689 35.6031 73.1723C35.8466 73.4745 36.1509 73.6557 36.5769 73.6557C37.0029 73.6557 37.3072 73.4745 37.5507 73.1723C37.9158 72.7494 38.0984 72.0243 38.0984 71.1784C38.0984 70.272 37.9767 69.6678 37.7941 69.2448C37.4898 68.701 37.0638 68.4593 36.5769 68.4593Z" fill="#21409A"/>
<path d="M40.1071 68.2783H43.0284V68.4596H42.9067C42.6632 68.4596 42.5415 68.4596 42.4198 68.52C42.3589 68.5804 42.2981 68.6409 42.2372 68.7013C42.1763 68.7617 42.1763 69.0034 42.1763 69.3055V72.0246C42.1763 72.5079 42.2372 72.8705 42.2981 72.9913C42.3589 73.1726 42.4806 73.2934 42.6632 73.4143C42.8458 73.5351 43.0892 73.5956 43.3327 73.5956C43.637 73.5956 43.8804 73.5351 44.1239 73.4143C44.3673 73.2934 44.489 73.1122 44.6108 72.8705C44.7325 72.6288 44.7933 72.2058 44.7933 71.662V69.4264C44.7933 69.1847 44.7933 69.0034 44.7325 68.8826C44.6716 68.7617 44.6108 68.7013 44.5499 68.6409C44.4282 68.5804 44.2456 68.52 44.0021 68.52V68.2783H45.9497V68.4596H45.828C45.6454 68.4596 45.5237 68.52 45.4019 68.5804C45.2802 68.6409 45.2194 68.7617 45.1585 68.8826C45.0976 68.943 45.0976 69.1242 45.0976 69.3659V71.4807C45.0976 72.1454 45.0368 72.6288 44.9759 72.8705C44.9151 73.1726 44.6716 73.4143 44.3065 73.656C43.9413 73.8977 43.5153 74.0185 42.9067 74.0185C42.4198 74.0185 42.0546 73.9581 41.7503 73.8372C41.3851 73.656 41.1417 73.4143 40.9591 73.1726C40.8374 72.8705 40.7157 72.5079 40.7157 72.085V69.3659C40.7157 69.0638 40.7157 68.8221 40.6548 68.7617C40.594 68.7013 40.5331 68.6409 40.4722 68.5804C40.4114 68.52 40.2288 68.52 39.9854 68.52V68.2783H40.1071Z" fill="#21409A"/>
<path d="M49.7228 72.2056H47.7144L47.4709 72.7494C47.4101 72.9307 47.3492 73.0515 47.3492 73.1723C47.3492 73.3536 47.4101 73.414 47.5318 73.5349C47.5927 73.5953 47.7752 73.5953 48.0795 73.6557V73.7766H46.1929V73.6557C46.3755 73.5953 46.558 73.5349 46.6798 73.414C46.8015 73.2932 46.9841 72.9911 47.1666 72.5681L49.2359 68.1572H49.2968L51.366 72.689C51.5486 73.1119 51.7312 73.414 51.8529 73.4745C51.9746 73.5349 52.0963 73.5953 52.2789 73.5953V73.7162H49.5402V73.5953H49.6619C49.9054 73.5953 50.0271 73.5349 50.1488 73.5349C50.2097 73.4745 50.2705 73.414 50.2705 73.3536C50.2705 73.2932 50.2705 73.2328 50.2705 73.2328C50.2705 73.2328 50.2097 73.1119 50.1488 72.9307L49.7228 72.2056ZM49.6011 71.9035L48.749 70.0303L47.897 71.9035H49.6011Z" fill="#21409A"/>
<path d="M57.8178 71.8433L57.5744 73.7768H52.5229V73.656H52.7055C52.8881 73.656 53.0098 73.656 53.1316 73.5956C53.1924 73.5351 53.2533 73.4747 53.3141 73.4143C53.3141 73.3539 53.375 73.1726 53.375 72.9309V69.3055C53.375 69.0034 53.375 68.8221 53.3141 68.7617C53.2533 68.7013 53.1924 68.6409 53.1316 68.5804C53.0098 68.52 52.8881 68.52 52.7664 68.52H52.5838V68.2783H55.6268V68.4596H55.3834C55.2008 68.4596 55.0791 68.4596 54.9574 68.52C54.8965 68.5804 54.8357 68.6409 54.7748 68.7013C54.7748 68.7617 54.7139 68.943 54.7139 69.1847V72.6892C54.7139 72.9913 54.7139 73.1726 54.7748 73.233C54.8357 73.2934 54.8965 73.3539 54.9574 73.4143C55.0182 73.4143 55.2008 73.4747 55.4443 73.4747H55.9311C56.2354 73.4747 56.4789 73.4143 56.6615 73.2934C56.844 73.1726 57.0266 73.0517 57.2092 72.8101C57.3309 72.5684 57.5135 72.2662 57.6352 71.8433H57.8178Z" fill="#21409A"/>
<path d="M61.2868 73.656V73.7768H58.3047V73.656H58.4873C58.6698 73.656 58.7916 73.656 58.9133 73.5956C58.9742 73.5351 59.035 73.4747 59.0959 73.4143C59.1567 73.3539 59.1567 73.1726 59.1567 72.9309V69.3055C59.1567 69.0034 59.1567 68.8221 59.0959 68.7617C59.0959 68.7013 58.9742 68.6409 58.9133 68.5804C58.7916 68.52 58.6698 68.52 58.5481 68.52H58.3655V68.2783H61.3477V68.4596H61.1651C60.9825 68.4596 60.8608 68.4596 60.7391 68.52C60.6782 68.5804 60.6174 68.6409 60.5565 68.7013C60.5565 68.7617 60.4957 68.943 60.4957 69.1847V72.8101C60.4957 73.1122 60.4957 73.2934 60.5565 73.3539C60.6174 73.4143 60.6782 73.4747 60.7391 73.5351C60.8608 73.5956 60.9825 73.5956 61.1043 73.5956H61.2868V73.656Z" fill="#21409A"/>
<path d="M66.9466 68.2783V69.7889H66.8249C66.764 69.4264 66.6423 69.1847 66.5206 69.0638C66.3988 68.8826 66.2771 68.8221 66.0945 68.7013C65.9728 68.6409 65.7902 68.6409 65.5468 68.6409H65.1208V72.9309C65.1208 73.233 65.1208 73.4143 65.1816 73.4747C65.2425 73.5351 65.3034 73.5956 65.3642 73.656C65.4859 73.7164 65.6077 73.7164 65.7294 73.7164H65.912V73.8373H62.9298V73.7164H63.1124C63.2949 73.7164 63.4167 73.7164 63.5384 73.656C63.5993 73.5956 63.6601 73.5351 63.721 73.4747C63.7818 73.4143 63.7818 73.233 63.7818 72.9913V68.7013H63.295C62.9298 68.7013 62.6255 68.7617 62.4429 68.943C62.1995 69.1847 62.0169 69.4868 61.956 69.9097H61.7734V68.2783H66.9466Z" fill="#21409A"/>
<path d="M73.3979 68.2783V68.4596C73.2153 68.4596 73.0936 68.52 72.9719 68.6409C72.8502 68.7617 72.6067 69.0638 72.3024 69.5472L71.0852 71.5412V72.8705C71.0852 73.1726 71.0852 73.3539 71.1461 73.4143C71.1461 73.4747 71.2678 73.5351 71.3287 73.5956C71.4504 73.656 71.5721 73.656 71.6938 73.656H71.9981V73.7768H68.7725V73.656H69.0768C69.2594 73.656 69.3811 73.656 69.5028 73.5956C69.5637 73.5351 69.6246 73.4747 69.6854 73.4143C69.7463 73.3539 69.7463 73.1726 69.7463 72.9309V71.8433L68.4074 69.4868C68.1639 69.0034 67.9813 68.7617 67.8596 68.6409C67.7379 68.5804 67.6162 68.52 67.4336 68.52V68.2783H70.1723V68.4596H70.0506C69.868 68.4596 69.7463 68.4596 69.6854 68.52C69.6246 68.5804 69.5637 68.6409 69.5637 68.6409C69.5637 68.7617 69.6854 69.0034 69.9289 69.3659L70.9635 71.1786L71.9981 69.4868C72.2416 69.0638 72.3633 68.8221 72.3633 68.7013C72.3633 68.6409 72.3024 68.5804 72.2416 68.52C72.1199 68.4596 71.9981 68.3992 71.6938 68.3992V68.2783H73.3979Z" fill="#21409A"/>
<path d="M81.0659 68.1572V70.0908H80.9441C80.8224 69.6074 80.579 69.1844 80.2747 68.9427C79.9095 68.701 79.5444 68.5198 79.1183 68.5198C78.7532 68.5198 78.4489 68.6406 78.1446 68.8219C77.8403 69.0032 77.6577 69.3053 77.4751 69.6074C77.2925 70.0303 77.2317 70.4533 77.2317 70.9971C77.2317 71.4805 77.2925 71.9639 77.4142 72.3264C77.536 72.7494 77.7185 73.0515 78.0228 73.2328C78.3271 73.414 78.6314 73.5349 79.1183 73.5349C79.4835 73.5349 79.7878 73.4745 80.0921 73.2932C80.3964 73.1119 80.7007 72.8702 81.0659 72.5077V72.9911C80.7616 73.2932 80.3964 73.5349 80.0921 73.7162C79.7269 73.837 79.3618 73.9579 78.8749 73.9579C78.2663 73.9579 77.7185 73.837 77.2317 73.5953C76.7448 73.3536 76.3796 72.9911 76.1362 72.5681C75.8927 72.1452 75.771 71.6618 75.771 71.1784C75.771 70.6346 75.8927 70.1512 76.197 69.6678C76.5013 69.1844 76.8665 68.8219 77.3534 68.5802C77.8403 68.3385 78.3271 68.2176 78.8749 68.2176C79.3009 68.2176 79.7269 68.2781 80.153 68.4593C80.3964 68.5802 80.579 68.5802 80.6398 68.5802C80.7007 68.5802 80.8224 68.5198 80.8833 68.4593C80.9441 68.3989 81.005 68.2781 81.005 68.1572H81.0659Z" fill="#21409A"/>
<path d="M83.9272 68.5804V70.8161H84.0489C84.4141 70.8161 84.6575 70.6952 84.8401 70.514C85.0227 70.2723 85.0835 69.9702 85.1444 69.5472H85.327V72.4475H85.1444C85.0835 72.1454 85.0227 71.9037 84.9618 71.662C84.8401 71.4807 84.7184 71.2995 84.5966 71.2391C84.4749 71.1786 84.2315 71.1182 83.988 71.1182V72.6892C83.988 72.9913 83.988 73.1726 84.0489 73.233C84.0489 73.2934 84.1098 73.3539 84.1706 73.4143C84.2315 73.4747 84.3532 73.4747 84.5358 73.4747H84.9009C85.4487 73.4747 85.8747 73.3539 86.179 73.1122C86.4833 72.8705 86.7268 72.5079 86.8485 72.0246H87.0311L86.7876 73.7768H81.8579V73.656H82.0405C82.2231 73.656 82.3448 73.656 82.4665 73.5956C82.5274 73.5351 82.5882 73.4747 82.6491 73.4143C82.71 73.3539 82.71 73.1726 82.71 72.9309V69.3055C82.71 69.0638 82.71 68.8826 82.71 68.8221C82.71 68.7013 82.6491 68.6409 82.5274 68.5804C82.4057 68.52 82.2839 68.4596 82.1013 68.4596H81.9188V68.2783H86.7268V69.9097H86.5442C86.4833 69.4868 86.3616 69.2451 86.179 69.0638C86.0573 68.8826 85.8139 68.7617 85.5704 68.7013C85.3878 68.6409 85.1444 68.6409 84.6575 68.6409H83.9272V68.5804Z" fill="#21409A"/>
<path d="M89.6472 71.2391V72.8101C89.6472 73.1122 89.6472 73.2934 89.7081 73.3539C89.7689 73.4143 89.8298 73.4747 89.8906 73.5351C90.0124 73.5956 90.195 73.5956 90.4384 73.5956V73.7164H87.5171V73.5956C87.7605 73.5956 87.9431 73.5956 88.0648 73.5351C88.1866 73.4747 88.2474 73.4143 88.2474 73.3539C88.3083 73.2934 88.3083 73.1122 88.3083 72.8101V69.2451C88.3083 68.943 88.3083 68.7617 88.2474 68.7013C88.1866 68.6409 88.1257 68.5804 88.0648 68.52C87.9431 68.4596 87.8214 68.4596 87.5171 68.4596V68.2783H90.195C90.8644 68.2783 91.4122 68.3387 91.7165 68.3992C92.0208 68.52 92.3251 68.6409 92.5077 68.8826C92.6902 69.1242 92.812 69.4264 92.812 69.7285C92.812 70.1514 92.6294 70.4536 92.3251 70.7557C92.1425 70.9369 91.8382 71.0578 91.5339 71.1182L92.9337 72.9913C93.1163 73.233 93.238 73.3539 93.2988 73.4143C93.4206 73.4747 93.5423 73.5351 93.7249 73.5351V73.656H91.8991L90.0732 71.1182H89.6472V71.2391ZM89.6472 68.5804V70.9974H89.8906C90.2558 70.9974 90.5601 70.9369 90.7427 70.8765C90.9253 70.8161 91.1079 70.6952 91.2296 70.514C91.3513 70.3327 91.4122 70.091 91.4122 69.7889C91.4122 69.3659 91.2904 69.0638 91.1079 68.8826C90.9253 68.7013 90.5601 68.5804 90.1341 68.5804H89.6472Z" fill="#21409A"/>
<path d="M98.7153 68.2783V69.7889H98.5936C98.5327 69.4264 98.411 69.1847 98.2893 69.0638C98.1676 68.8826 98.0459 68.8221 97.8633 68.7013C97.7416 68.6409 97.559 68.6409 97.3155 68.6409H96.8895V72.9309C96.8895 73.233 96.8895 73.4143 96.9504 73.4747C97.0112 73.5351 97.0721 73.5956 97.1329 73.656C97.2547 73.7164 97.3764 73.7164 97.4981 73.7164H97.6807V73.8373H94.6985V73.7164H94.8811C95.0637 73.7164 95.1854 73.7164 95.3071 73.656C95.368 73.5956 95.4288 73.5351 95.4897 73.4747C95.5506 73.4143 95.5506 73.233 95.5506 72.9913V68.7013H95.1245C94.7594 68.7013 94.4551 68.7617 94.2725 68.943C94.029 69.1847 93.8465 69.4868 93.7856 69.9097H93.603V68.2783H98.7153Z" fill="#21409A"/>
<path d="M102.185 73.656V73.7768H99.2031V73.656H99.3857C99.5683 73.656 99.69 73.656 99.8117 73.5956C99.8726 73.5351 99.9335 73.4747 99.9943 73.4143C100.055 73.3539 100.055 73.1726 100.055 72.9309V69.3055C100.055 69.0034 100.055 68.8221 99.9943 68.7617C99.9943 68.7013 99.8726 68.6409 99.8117 68.5804C99.69 68.52 99.5683 68.52 99.4466 68.52H99.2031V68.2783H102.185V68.4596H102.003C101.82 68.4596 101.698 68.4596 101.577 68.52C101.516 68.5804 101.455 68.6409 101.394 68.7013C101.394 68.7617 101.333 68.943 101.333 69.1847V72.8101C101.333 73.1122 101.333 73.2934 101.394 73.3539C101.455 73.4143 101.516 73.4747 101.577 73.5351C101.698 73.5956 101.82 73.5956 101.942 73.5956H102.185V73.656Z" fill="#21409A"/>
<path d="M104.741 68.5804V70.8765H104.924C105.167 70.8765 105.41 70.8161 105.532 70.7557C105.715 70.6952 105.836 70.5744 105.958 70.3931C106.08 70.2119 106.141 69.9702 106.202 69.6681H106.323V72.4475H106.202C106.141 71.9037 106.019 71.6016 105.776 71.4203C105.532 71.2391 105.289 71.1786 104.984 71.1786H104.802V72.8705C104.802 73.1726 104.802 73.3539 104.863 73.4143C104.924 73.4747 104.984 73.5351 105.045 73.5956C105.167 73.656 105.289 73.656 105.41 73.656H105.593V73.7768H102.611V73.656H102.793C102.976 73.656 103.098 73.656 103.219 73.5956C103.28 73.5351 103.341 73.4747 103.402 73.4143C103.463 73.3539 103.463 73.1726 103.463 72.9309V69.3055C103.463 69.0034 103.463 68.8221 103.402 68.7617C103.402 68.7013 103.28 68.6409 103.219 68.5804C103.098 68.52 102.976 68.52 102.854 68.52H102.672V68.2783H107.48V69.8493H107.297C107.236 69.4868 107.175 69.1847 106.993 69.0034C106.81 68.8221 106.567 68.7013 106.262 68.6409C106.08 68.5804 105.776 68.5804 105.35 68.5804H104.741Z" fill="#21409A"/>
<path d="M110.827 73.656V73.7768H107.845V73.656H108.027C108.21 73.656 108.332 73.656 108.453 73.5956C108.514 73.5351 108.575 73.4747 108.636 73.4143C108.697 73.3539 108.697 73.1726 108.697 72.9309V69.3055C108.697 69.0034 108.697 68.8221 108.636 68.7617C108.636 68.7013 108.514 68.6409 108.453 68.5804C108.332 68.52 108.21 68.52 108.088 68.52H107.906V68.2783H110.888V68.4596H110.705C110.523 68.4596 110.401 68.4596 110.279 68.52C110.218 68.5804 110.157 68.6409 110.097 68.7013C110.097 68.7617 110.036 68.943 110.036 69.1847V72.8101C110.036 73.1122 110.036 73.2934 110.097 73.3539C110.157 73.4143 110.218 73.4747 110.279 73.5351C110.401 73.5956 110.523 73.5956 110.644 73.5956H110.827V73.656Z" fill="#21409A"/>
<path d="M116.792 68.1572V70.0908H116.609C116.487 69.6074 116.244 69.1844 115.94 68.9427C115.575 68.701 115.209 68.5198 114.783 68.5198C114.418 68.5198 114.114 68.6406 113.81 68.8219C113.505 69.0032 113.323 69.3053 113.14 69.6074C112.958 70.0303 112.897 70.4533 112.897 70.9971C112.897 71.4805 112.958 71.9639 113.079 72.3264C113.201 72.7494 113.384 73.0515 113.688 73.2328C113.992 73.414 114.296 73.5349 114.783 73.5349C115.149 73.5349 115.453 73.4745 115.757 73.2932C116.061 73.1119 116.366 72.8702 116.731 72.5077V72.9911C116.427 73.2932 116.061 73.5349 115.757 73.7162C115.392 73.837 115.027 73.9579 114.54 73.9579C113.931 73.9579 113.384 73.837 112.897 73.5953C112.41 73.3536 112.045 72.9911 111.801 72.5681C111.558 72.1452 111.436 71.6618 111.436 71.1784C111.436 70.6346 111.558 70.1512 111.862 69.6678C112.166 69.1844 112.532 68.8219 113.018 68.5802C113.505 68.3385 113.992 68.2176 114.54 68.2176C114.966 68.2176 115.392 68.2781 115.818 68.4593C116.061 68.5802 116.244 68.5802 116.305 68.5802C116.366 68.5802 116.487 68.5198 116.548 68.4593C116.609 68.3989 116.67 68.2781 116.67 68.1572H116.792Z" fill="#21409A"/>
<path d="M120.869 72.2056H118.86L118.617 72.7494C118.556 72.9307 118.495 73.0515 118.495 73.1723C118.495 73.3536 118.556 73.414 118.678 73.5349C118.739 73.5953 118.921 73.5953 119.226 73.6557V73.7766H117.339V73.6557C117.521 73.5953 117.704 73.5349 117.826 73.414C117.947 73.2932 118.13 72.9911 118.313 72.5681L120.382 68.1572H120.443L122.512 72.689C122.695 73.1119 122.877 73.414 122.999 73.4745C123.121 73.5349 123.242 73.5953 123.425 73.5953V73.7162H120.686V73.5953H120.808C121.051 73.5953 121.173 73.5349 121.295 73.5349C121.356 73.4745 121.417 73.414 121.417 73.3536C121.417 73.2932 121.417 73.2328 121.417 73.2328C121.417 73.2328 121.356 73.1119 121.295 72.9307L120.869 72.2056ZM120.686 71.9035L119.834 70.0303L118.982 71.9035H120.686Z" fill="#21409A"/>
<path d="M128.293 68.2783V69.7889H128.172C128.111 69.4264 127.989 69.1847 127.867 69.0638C127.746 68.8826 127.624 68.8221 127.441 68.7013C127.32 68.6409 127.137 68.6409 126.894 68.6409H126.468V72.9309C126.468 73.233 126.468 73.4143 126.528 73.4747C126.589 73.5351 126.65 73.5956 126.711 73.656C126.833 73.7164 126.955 73.7164 127.076 73.7164H127.259V73.8373H124.277V73.7164H124.459C124.642 73.7164 124.764 73.7164 124.885 73.656C124.946 73.5956 125.007 73.5351 125.068 73.4747C125.129 73.4143 125.129 73.233 125.129 72.9913V68.7013H124.703C124.338 68.7013 124.033 68.7617 123.851 68.943C123.607 69.1847 123.425 69.4868 123.364 69.9097H123.181V68.2783H128.293Z" fill="#21409A"/>
<path d="M131.763 73.656V73.7768H128.781V73.656H128.964C129.146 73.656 129.268 73.656 129.39 73.5956C129.451 73.5351 129.512 73.4747 129.572 73.4143C129.633 73.3539 129.633 73.1726 129.633 72.9309V69.3055C129.633 69.0034 129.633 68.8221 129.572 68.7617C129.572 68.7013 129.451 68.6409 129.39 68.5804C129.268 68.52 129.146 68.52 129.025 68.52H128.842V68.2783H131.824V68.4596H131.642C131.459 68.4596 131.337 68.4596 131.216 68.52C131.155 68.5804 131.094 68.6409 131.033 68.7013C131.033 68.7617 130.972 68.943 130.972 69.1847V72.8101C130.972 73.1122 130.972 73.2934 131.033 73.3539C131.094 73.4143 131.155 73.4747 131.216 73.5351C131.337 73.5956 131.459 73.5956 131.581 73.5956H131.763V73.656Z" fill="#21409A"/>
<path d="M135.293 68.1575C136.206 68.0971 136.936 68.3992 137.484 68.943C138.032 69.4868 138.336 70.1515 138.336 70.9974C138.336 71.7225 138.154 72.3267 137.728 72.8705C137.18 73.5956 136.389 73.9582 135.354 73.9582C134.319 73.9582 133.528 73.5956 132.981 72.931C132.554 72.3872 132.311 71.7829 132.311 71.0578C132.311 70.2119 132.615 69.5473 133.163 69.0034C133.772 68.3992 134.441 68.1575 135.293 68.1575ZM135.354 68.4596C134.806 68.4596 134.441 68.7013 134.137 69.2451C133.893 69.6681 133.833 70.2723 133.833 71.0578C133.833 72.0246 134.015 72.6893 134.319 73.1727C134.563 73.4748 134.867 73.656 135.354 73.656C135.658 73.656 135.902 73.5956 136.084 73.4748C136.328 73.2935 136.51 73.0518 136.632 72.6288C136.754 72.2663 136.815 71.7225 136.815 71.1183C136.815 70.3932 136.754 69.8494 136.632 69.4868C136.51 69.1243 136.328 68.8826 136.084 68.7013C135.902 68.5201 135.658 68.4596 135.354 68.4596Z" fill="#21409A"/>
<path d="M140.832 68.2783L143.631 71.7224V69.3659C143.631 69.0638 143.57 68.8221 143.51 68.7013C143.388 68.52 143.144 68.4596 142.84 68.4596V68.2783H144.727V68.4596C144.483 68.4596 144.301 68.52 144.24 68.5804C144.179 68.6409 144.118 68.7013 144.057 68.8221C143.996 68.943 143.996 69.1242 143.996 69.3659V73.9581H143.875L139.98 69.3659V72.8705C139.98 73.1726 140.04 73.4143 140.223 73.5351C140.345 73.656 140.527 73.7164 140.71 73.7164H140.832V73.8373H138.823V73.7164C139.128 73.7164 139.371 73.656 139.493 73.5351C139.614 73.4143 139.675 73.233 139.675 72.9309V69.0034L139.554 68.8826C139.432 68.7617 139.31 68.6409 139.249 68.5804C139.128 68.52 139.006 68.52 138.823 68.52V68.2783H140.832Z" fill="#21409A"/>
<path d="M146.613 56.3745C147.039 56.3745 147.465 56.4954 147.891 56.6766C148.317 56.9183 148.621 57.2204 148.865 57.6434C149.108 58.0664 149.23 58.4893 149.23 58.9123C149.23 59.3352 149.108 59.7582 148.865 60.1812C148.621 60.6041 148.317 60.9062 147.891 61.1479C147.465 61.3896 147.039 61.5105 146.552 61.5105C146.126 61.5105 145.639 61.3896 145.213 61.1479C144.787 60.9062 144.483 60.6041 144.239 60.1812C143.996 59.7582 143.874 59.3352 143.874 58.9123C143.874 58.4893 143.996 58.0664 144.239 57.6434C144.483 57.2204 144.787 56.9183 145.213 56.6766C145.761 56.4349 146.187 56.3745 146.613 56.3745ZM146.613 56.6766C146.248 56.6766 145.822 56.7975 145.456 56.9787C145.091 57.16 144.787 57.4621 144.604 57.8247C144.422 58.1872 144.3 58.5497 144.3 58.9123C144.3 59.2748 144.422 59.6374 144.604 59.9999C144.787 60.3624 145.091 60.6041 145.456 60.8458C145.822 61.0271 146.187 61.1479 146.613 61.1479C147.039 61.1479 147.404 61.0271 147.769 60.8458C148.134 60.6646 148.439 60.3624 148.621 59.9999C148.804 59.6374 148.925 59.2748 148.925 58.9123C148.925 58.5497 148.804 58.1268 148.621 57.8247C148.439 57.4621 148.134 57.2204 147.769 56.9787C147.404 56.7371 147.039 56.6766 146.613 56.6766ZM145.213 57.4017H146.552C146.978 57.4017 147.343 57.4621 147.465 57.583C147.708 57.7038 147.83 57.9455 147.83 58.1872C147.83 58.3685 147.769 58.4893 147.647 58.6706C147.526 58.7914 147.343 58.9123 147.161 58.9727L147.647 59.8791C147.708 59.9999 147.769 60.1207 147.891 60.1812C147.952 60.2416 147.952 60.2416 148.073 60.2416V60.3624H147.161L146.369 59.0331H146.187V59.7582C146.187 59.9395 146.187 60.1207 146.248 60.1207C146.308 60.1812 146.43 60.1812 146.613 60.2416V60.3624H145.03V60.2416C145.213 60.2416 145.274 60.2416 145.335 60.1812C145.396 60.1207 145.456 59.9999 145.456 59.7582V58.0059C145.456 57.8247 145.456 57.7038 145.396 57.6434C145.335 57.583 145.274 57.583 145.152 57.5225V57.4017H145.213ZM146.308 58.7914C146.369 58.7914 146.491 58.7914 146.491 58.7914C146.674 58.7914 146.795 58.731 146.917 58.6102C147.039 58.4893 147.1 58.3081 147.1 58.1268C147.1 57.9455 147.039 57.7642 146.917 57.6434C146.795 57.5226 146.674 57.4621 146.43 57.4621H146.308V58.7914Z" fill="#21409A"/>
<path d="M147.161 40.6046C147.161 40.6046 143.327 47.1908 136.024 50.0911C134.989 50.514 133.954 50.8162 132.859 51.0578C131.763 51.2995 130.668 51.4204 129.572 51.4808C123.851 51.7225 118.009 49.5473 114.783 44.4113C114.175 43.4445 113.627 42.4173 113.201 41.3901C112.775 40.3629 112.41 39.3962 112.166 38.369C110.827 33.233 111.618 28.3387 112.41 25.2572C112.592 24.6529 112.775 24.0487 113.079 23.384C113.383 22.7194 113.688 22.0547 114.114 21.3901C116.183 17.946 120.078 14.5623 126.347 14.4414C127.564 14.4414 128.72 14.5018 129.816 14.6831C130.911 14.8644 131.946 15.1061 132.92 15.4686C137.91 17.2813 141.318 21.5109 143.266 27.2511L142.718 27.4324C140.832 21.813 137.545 17.7647 132.737 16.0124C131.824 15.6499 130.79 15.4082 129.755 15.2269C128.72 15.0456 127.564 14.9852 126.408 14.9852C120.382 15.1061 116.67 18.3689 114.662 21.6922C114.296 22.3568 113.931 22.9611 113.688 23.6257C113.444 24.2904 113.201 24.8946 113.079 25.4384C112.288 28.3992 111.558 33.233 112.836 38.2481C113.079 39.2149 113.383 40.1817 113.809 41.2089C114.236 42.1756 114.722 43.1424 115.331 44.1092C118.496 49.0035 124.095 51.1183 129.633 50.8766C130.729 50.8162 131.763 50.6953 132.859 50.4536C133.893 50.2119 134.928 49.9098 135.963 49.5473C143.083 46.7678 146.796 40.3629 146.796 40.3025L147.161 40.6046Z" fill="#BCBEC0"/>
<path d="M0 14.2595C0 14.2595 6.99896 13.4136 6.99896 19.8789V34.0179V45.0149C7.05982 45.4379 7.72929 52.8699 0.0608605 52.3261L0.121721 51.7823C7.30326 52.3261 6.45122 45.1358 6.45122 45.0753V33.9575V19.8185C6.45122 14.0178 0.121721 14.8033 0.121721 14.8033L0 14.2595Z" fill="#BCBEC0"/>
<path d="M149.961 8.33861H97.2554V7.73438H149.961V8.33861Z" fill="#21409A"/>
<path d="M149.96 6.70677H95.3682V6.10254H149.96V6.70677Z" fill="#BCBEC0"/>
<path d="M0.425781 7.73438H45.4017V8.33861H0.425781V7.73438Z" fill="#21409A"/>
<path d="M0.425781 6.10254H46.9841V6.70677H0.425781V6.10254Z" fill="#BCBEC0"/>
<path d="M0.668945 78.9126H148.925V80.0002H0.668945V78.9126Z" fill="#21409A"/>
</svg>
